<svg id="Layer_1" enable-background="new 0 0 256 256" height="512" viewBox="0 0 256 256" width="512" xmlns="http://www.w3.org/2000/svg"><g><path d="m175.893 163.149h-19.777c0-15.429 0-25.88 0-43.419h-56.286v43.419h-19.723c-15.559 0-28.172 12.613-28.172 28.172v61.68h152.13c0-8.774 0-52.81 0-61.68 0-15.559-12.613-28.172-28.172-28.172z" fill="#f9cfcf"/><circle cx="95.57" cy="177.307" fill="#f9a7a7" r="4.865"/><path d="m95.566 179.473c-.345 0-.678-.082-.989-.243-.515-.266-.895-.716-1.071-1.266-.175-.551-.125-1.137.14-1.651.374-.723 1.113-1.172 1.927-1.172.345 0 .678.082.99.243.514.266.894.715 1.069 1.266.175.55.125 1.137-.14 1.651-.373.723-1.112 1.172-1.926 1.172z" fill="#e0ebfc"/><circle cx="79.534" cy="188.15" fill="#f9a7a7" r="4.865"/><path d="m79.53 190.316c-.345 0-.679-.082-.991-.243-.513-.265-.893-.715-1.068-1.266s-.125-1.137.14-1.651c.374-.723 1.111-1.172 1.927-1.172.345 0 .678.082.99.243 1.06.548 1.477 1.856.928 2.917-.374.723-1.111 1.172-1.926 1.172z" fill="#e0ebfc"/><circle cx="178.64" cy="182.173" fill="#f9a7a7" r="4.865"/><path d="m178.636 184.338c-.345 0-.678-.082-.99-.243-1.059-.548-1.477-1.856-.928-2.917.374-.723 1.113-1.172 1.927-1.172.345 0 .678.082.989.243 1.061.548 1.478 1.857.929 2.918-.373.722-1.111 1.171-1.927 1.171z" fill="#e0ebfc"/><circle cx="167.932" cy="199.133" fill="#f9a7a7" r="4.865"/><path d="m167.928 201.299c-.345 0-.678-.082-.99-.243-1.06-.548-1.477-1.857-.929-2.917.374-.722 1.113-1.171 1.927-1.171.345 0 .678.082.99.243.514.266.894.715 1.069 1.266.175.55.125 1.137-.14 1.651-.374.722-1.112 1.171-1.927 1.171z" fill="#e0ebfc"/><circle cx="178.64" cy="194.268" fill="#f9a7a7" r="4.865"/><path d="m178.637 196.433c-.345 0-.679-.082-.991-.243-.513-.265-.893-.715-1.068-1.266-.175-.55-.125-1.137.14-1.651.374-.723 1.113-1.172 1.927-1.172.345 0 .678.082.989.243 1.061.548 1.478 1.857.929 2.918-.373.723-1.111 1.171-1.926 1.171z" fill="#e0ebfc"/><circle cx="189.355" cy="213.73" fill="#f9a7a7" r="4.865"/><path d="m189.351 215.896c-.345 0-.678-.082-.99-.243-1.06-.548-1.477-1.857-.928-2.918.373-.721 1.111-1.17 1.926-1.17.347 0 .679.082.991.243 1.06.548 1.477 1.856.928 2.917-.374.722-1.112 1.171-1.927 1.171z" fill="#e0ebfc"/><circle cx="136.64" cy="218.47" fill="#f9a7a7" r="4.865"/><path d="m136.636 220.635c-.345 0-.678-.082-.99-.243-1.059-.548-1.477-1.856-.928-2.917.374-.722 1.113-1.171 1.927-1.171.345 0 .678.082.99.243 1.06.548 1.477 1.856.928 2.917-.373.722-1.111 1.171-1.927 1.171z" fill="#e0ebfc"/><circle cx="104.572" cy="203.999" fill="#f9a7a7" r="4.865"/><path d="m104.569 206.165c-.345 0-.678-.082-.989-.243-.515-.266-.895-.716-1.071-1.266-.175-.551-.125-1.137.14-1.651.374-.723 1.113-1.172 1.927-1.172.345 0 .678.082.99.243 1.06.548 1.477 1.857.928 2.918-.372.722-1.11 1.171-1.925 1.171z" fill="#e0ebfc"/><circle cx="136.856" cy="235.452" fill="#f9a7a7" r="4.865"/><path d="m136.851 237.618c-.345 0-.678-.082-.99-.243-1.059-.548-1.477-1.856-.928-2.917.374-.723 1.111-1.172 1.927-1.172.344 0 .678.082.989.243 1.061.548 1.478 1.857.929 2.918-.372.722-1.11 1.171-1.927 1.171z" fill="#e0ebfc"/><circle cx="139.856" cy="168.064" fill="#f9a7a7" r="4.865"/><path d="m139.852 170.23c-.345 0-.678-.082-.99-.243-1.06-.548-1.477-1.857-.928-2.918.373-.721 1.111-1.171 1.926-1.171.345 0 .679.082.991.243.513.265.893.715 1.068 1.266s.125 1.137-.14 1.651c-.374.723-1.112 1.172-1.927 1.172z" fill="#e0ebfc"/><circle cx="150.048" cy="184.071" fill="#f9a7a7" r="4.865"/><path d="m150.044 186.237c-.347 0-.679-.082-.991-.243-1.059-.548-1.477-1.856-.928-2.917.374-.723 1.113-1.171 1.927-1.171.345 0 .678.082.99.243 1.06.548 1.477 1.857.928 2.918-.373.721-1.111 1.17-1.926 1.17z" fill="#e0ebfc"/><circle cx="127.125" cy="194.268" fill="#f9a7a7" r="4.865"/><path d="m127.121 196.433c-.345 0-.678-.082-.989-.243-1.061-.548-1.478-1.857-.929-2.918.373-.722 1.111-1.171 1.926-1.171.345 0 .679.082.991.243.513.265.893.715 1.068 1.266.175.55.125 1.137-.14 1.651-.374.724-1.113 1.172-1.927 1.172z" fill="#e0ebfc"/><circle cx="61.646" cy="241.966" fill="#f9a7a7" r="4.865"/><path d="m61.643 244.132c-.347 0-.679-.082-.991-.243-1.06-.548-1.477-1.856-.928-2.917.374-.722 1.113-1.171 1.927-1.171.345 0 .678.082.99.243 1.06.548 1.477 1.857.928 2.918-.373.721-1.111 1.17-1.926 1.17z" fill="#e0ebfc"/><circle cx="159.042" cy="223.462" fill="#f9a7a7" r="4.865"/><path d="m159.038 225.627c-.345 0-.678-.082-.99-.243-1.06-.548-1.477-1.857-.928-2.918.373-.721 1.111-1.171 1.926-1.171.345 0 .678.082.989.243.515.266.895.716 1.071 1.266.175.551.125 1.137-.14 1.651-.375.723-1.113 1.172-1.928 1.172z" fill="#e0ebfc"/><circle cx="88.093" cy="239.587" fill="#f9a7a7" r="4.865"/><path d="m88.089 241.753c-.345 0-.679-.082-.991-.243-.513-.265-.893-.715-1.068-1.266s-.125-1.137.14-1.651c.374-.723 1.113-1.172 1.927-1.172.345 0 .678.082.99.243 1.06.548 1.477 1.857.928 2.918-.373.722-1.111 1.171-1.926 1.171z" fill="#e0ebfc"/><circle cx="67.646" cy="213.73" fill="#f9a7a7" r="4.865"/><path d="m67.643 215.896c-.347 0-.679-.082-.991-.243-1.06-.548-1.477-1.856-.928-2.917.374-.722 1.113-1.171 1.927-1.171.345 0 .678.082.99.243 1.06.548 1.477 1.857.928 2.918-.373.721-1.111 1.17-1.926 1.17z" fill="#e0ebfc"/><circle cx="88.093" cy="223.462" fill="#f9a7a7" r="4.865"/><path d="m88.088 225.627c-.345 0-.678-.082-.99-.243-1.059-.548-1.477-1.856-.928-2.917.374-.723 1.113-1.172 1.927-1.172.345 0 .678.082.989.243 1.061.548 1.478 1.857.929 2.918-.373.722-1.111 1.171-1.927 1.171z" fill="#e0ebfc"/><circle cx="141.722" cy="199.133" fill="#f9a7a7" r="4.865"/><path d="m141.718 201.299c-.345 0-.678-.082-.99-.243-1.06-.548-1.477-1.857-.928-2.918.373-.721 1.111-1.17 1.926-1.17.347 0 .679.082.991.243 1.059.548 1.477 1.856.928 2.917-.374.723-1.113 1.171-1.927 1.171z" fill="#e0ebfc"/><path d="m104.569 153.502c-.345 0-.678-.082-.989-.243-.515-.266-.895-.716-1.071-1.266-.175-.55-.125-1.137.14-1.651.374-.723 1.113-1.172 1.927-1.172.345 0 .678.082.989.243 1.061.548 1.478 1.857.929 2.918-.372.722-1.11 1.171-1.925 1.171z" fill="#e0ebfc"/><circle cx="194.459" cy="193.327" fill="#f9a7a7" r="4.865"/><path d="m194.454 195.493c-.345 0-.678-.082-.99-.243-.513-.265-.893-.715-1.068-1.266s-.125-1.137.14-1.651c.374-.723 1.111-1.172 1.927-1.172.345 0 .678.082.99.243 1.059.548 1.477 1.856.928 2.917-.374.723-1.111 1.172-1.927 1.172z" fill="#e0ebfc"/><circle cx="163.908" cy="244.966" fill="#f9a7a7" r="4.865"/><path d="m163.904 247.132c-.345 0-.678-.082-.99-.243-.514-.266-.894-.715-1.069-1.266-.175-.55-.125-1.137.14-1.651.374-.722 1.113-1.171 1.927-1.171.345 0 .678.082.99.243 1.06.548 1.477 1.857.929 2.917-.374.722-1.112 1.171-1.927 1.171z" fill="#e0ebfc"/><circle cx="196.727" cy="239.966" fill="#f9a7a7" r="4.865"/><path d="m196.723 242.132c-.345 0-.678-.082-.99-.243-1.06-.548-1.477-1.857-.928-2.918.373-.721 1.111-1.17 1.926-1.17.345 0 .678.082.99.243.514.266.894.715 1.069 1.266.175.55.125 1.137-.14 1.651-.374.722-1.112 1.171-1.927 1.171z" fill="#e0ebfc"/><circle cx="112.438" cy="244.832" fill="#f9a7a7" r="4.865"/><path d="m112.435 246.998c-.345 0-.679-.082-.991-.243-.513-.265-.893-.715-1.068-1.266-.175-.55-.125-1.137.14-1.651.374-.723 1.111-1.172 1.927-1.172.345 0 .678.082.99.243 1.059.548 1.477 1.856.928 2.917-.374.723-1.111 1.172-1.926 1.172z" fill="#e0ebfc"/><circle cx="112.474" cy="230.014" fill="#f9a7a7" r="4.865"/><path d="m112.471 232.18c-.345 0-.679-.082-.991-.243-.513-.265-.893-.715-1.068-1.266s-.125-1.137.14-1.651c.374-.723 1.113-1.172 1.927-1.172.345 0 .678.082.99.243 1.06.548 1.477 1.857.928 2.918-.373.722-1.111 1.171-1.926 1.171z" fill="#e0ebfc"/><path d="m128 143.373c-36.448 0-65.994-29.547-65.994-65.994v-27.641c0-9.161 7.427-16.588 16.588-16.588h115.4v44.23c0 36.447-29.546 65.993-65.994 65.993z" fill="#4671c6"/><path d="m184.207 81.84v-5.263c0-30.763-25.165-55.701-56.207-55.701-31.043 0-56.207 24.938-56.207 55.701v5.263c-9.76-.198-17.503 7.577-17.503 16.976 0 10.036 8.761 17.974 18.988 16.893 5.801 24.644 28.092 43.004 54.723 43.004 26.633 0 48.923-18.362 54.723-43.004 10.213 1.08 18.988-6.843 18.988-16.893-.001-9.403-7.751-17.174-17.505-16.976z" fill="#f9cfcf"/><g><path d="m140.174 131.871c-.515 0-1.028-.197-1.42-.591-1.498-1.51-3.533-2.686-5.885-3.401-1.414-.431-3.009-.64-4.876-.64s-3.463.209-4.877.64c-2.353.716-4.387 1.892-5.884 3.401-.777.784-2.045.789-2.828.012-.784-.778-.79-2.044-.012-2.828 1.961-1.978 4.575-3.503 7.56-4.412 1.797-.547 3.773-.813 6.041-.813s4.243.266 6.04.813c2.983.908 5.598 2.433 7.561 4.411.777.784.772 2.05-.011 2.829-.391.385-.9.579-1.409.579z" fill="#3762cc"/></g><g><g><path d="m151.86 90.081c-1.091 1.249-1.756 2.878-1.756 4.666v7.578c0 3.923 3.181 7.104 7.104 7.104 3.924 0 7.104-3.181 7.104-7.104v-7.234c-5.085-.889-9.326-2.976-12.452-5.01z" fill="#3762cc"/></g><g><path d="m91.728 95.084v7.241c0 3.923 3.181 7.104 7.104 7.104s7.104-3.181 7.104-7.104v-7.578c0-1.796-.672-3.432-1.771-4.683-3.119 2.035-7.356 4.125-12.437 5.02z" fill="#3762cc"/></g><g><path d="m169.37 97.539c-14.915 0-24.57-10.554-24.983-11.014-.737-.822-.67-2.086.151-2.824.822-.738 2.085-.67 2.822.149.105.116 8.932 9.689 22.036 9.689.302 0 .605-.005.911-.016 1.092-.012 2.029.828 2.066 1.931.037 1.104-.827 2.029-1.932 2.067-.358.012-.716.018-1.071.018z" fill="#3762cc"/></g><g><path d="m86.63 97.539c-.355 0-.712-.006-1.072-.018-1.104-.038-1.969-.963-1.932-2.067s.974-1.944 2.066-1.931c13.661.469 22.854-9.57 22.944-9.671.739-.821 2.003-.89 2.825-.151.821.738.889 2.002.151 2.824-.412.46-10.068 11.014-24.982 11.014z" fill="#3762cc"/></g></g><path d="m193.994 71.036h-88.183c-18.788 0-34.018-15.23-34.018-34.018 0-18.788 15.23-34.018 34.018-34.018h57.721c16.824 0 30.462 13.638 30.462 30.462z" fill="#4671c6"/><circle cx="167.917" cy="125.238" fill="#f9a7a7" r="3.603"/><path d="m167.913 126.842c-.256 0-.502-.061-.733-.18-.785-.406-1.094-1.375-.688-2.161.277-.536.823-.868 1.428-.868.256 0 .502.061.733.18.785.406 1.094 1.375.688 2.161-.277.536-.823.868-1.428.868z" fill="#e0ebfc"/><circle cx="158.125" cy="134.144" fill="#f9a7a7" r="4.865"/><path d="m158.121 136.31c-.345 0-.678-.082-.989-.243-1.061-.548-1.478-1.857-.929-2.918.373-.722 1.111-1.171 1.926-1.171.345 0 .678.082.99.243.514.266.894.715 1.069 1.266.175.55.125 1.137-.14 1.651-.374.723-1.112 1.172-1.927 1.172z" fill="#e0ebfc"/><circle cx="85.757" cy="121.634" fill="#f9a7a7" r="3.603"/><path d="m85.754 123.238c-.255 0-.502-.061-.732-.18-.786-.406-1.095-1.375-.688-2.162.276-.535.823-.867 1.427-.867.256 0 .503.061.734.18.38.196.661.529.791.938.13.408.093.842-.104 1.223-.278.536-.824.868-1.428.868z" fill="#e0ebfc"/><circle cx="93.241" cy="130.333" fill="#f9a7a7" r="4.865"/><path d="m93.238 132.498c-.345 0-.678-.082-.99-.243-.514-.266-.894-.715-1.069-1.266s-.125-1.137.14-1.651c.374-.723 1.113-1.172 1.927-1.172.345 0 .678.082.99.243.514.266.894.715 1.069 1.266.175.55.125 1.137-.14 1.651-.374.723-1.113 1.172-1.927 1.172z" fill="#e0ebfc"/><circle cx="71.241" cy="174.441" fill="#f9a7a7" r="4.865"/><path d="m71.238 176.607c-.345 0-.678-.082-.99-.243-.514-.266-.894-.715-1.069-1.266-.175-.55-.125-1.137.14-1.651.374-.722 1.113-1.171 1.927-1.171.345 0 .678.082.99.243.514.266.894.715 1.069 1.266.175.55.125 1.137-.14 1.651-.374.722-1.113 1.171-1.927 1.171z" fill="#e0ebfc"/><path d="m175.893 161.148h-17.777v-8.688c-.001 0-.001.001-.002.001 12.619-7.532 22.181-19.744 26.146-34.659 4.838.079 9.562-1.674 13.167-4.918 3.994-3.593 6.284-8.721 6.284-14.068 0-5.118-2.022-9.918-5.694-13.516-.724-.709-1.5-1.345-2.311-1.922.177-2.016.288-4.029.288-5.999v-6.343-37.574c0-17.9-14.563-32.462-32.463-32.462h-57.721c-18.596 0-33.945 14.168-35.823 32.277-6.1 3.192-9.981 9.523-9.981 16.461v27.641c0 1.972.111 3.985.289 5.997-.811.578-1.587 1.213-2.311 1.922-3.672 3.598-5.694 8.399-5.694 13.518 0 5.347 2.291 10.476 6.286 14.07 3.605 3.243 8.359 4.993 13.166 4.917 3.96 14.892 13.499 27.089 26.09 34.624v8.722h-17.725c-16.637 0-30.172 13.535-30.172 30.172v61.679c0 1.104.896 2 2 2h152.13c1.104 0 2-.896 2-2v-61.68c0-16.636-13.535-30.172-30.172-30.172zm10.204-88.112h5.897c0 4.601.028 5.789-.121 8.236-1.902-.777-3.919-1.225-5.666-1.369 0-2.704.026-4.655-.11-6.867zm-80.286-68.036h57.721c15.694 0 28.463 12.768 28.463 28.462v35.574h-8.065-78.118c-7.487 0-15.021-2.7-20.978-7.861-22.711-19.659-8.106-56.175 20.977-56.175zm-41.805 44.738c0-4.628 2.201-8.916 5.803-11.636.175 5.86 1.803 11.494 4.455 16.293-4.537 10.772-4.471 19.46-4.471 25.509-1.723.142-3.768.594-5.666 1.369-.08-1.308-.12-2.61-.12-3.894v-27.641zm11.218 65.512c-.214-.912-1.027-1.542-1.945-1.542-.07 0-.141.003-.212.011-4.31.456-8.621-.931-11.816-3.807-3.153-2.837-4.961-6.882-4.961-11.097 0-4.035 1.596-7.821 4.494-10.661 2.808-2.751 6.814-4.39 10.969-4.316 1 .037 2.041-.786 2.041-2 0-6.592-.371-13.518 3.157-23.288 6.757 9.023 17.425 14.484 28.861 14.484h76.263c.164 2.466.133 2.535.133 8.804 0 1.158.978 2.035 2.04 2 4.282-.07 8.207 1.61 10.971 4.317 2.897 2.84 4.493 6.625 4.493 10.659 0 4.215-1.808 8.259-4.96 11.095-3.197 2.877-7.505 4.266-11.818 3.809-.991-.111-1.926.55-2.157 1.531-5.745 24.413-27.447 41.462-52.775 41.462-25.329.002-47.032-17.048-52.778-41.461zm126.841 135.75h-19.665v-40.333c0-1.104-.896-2-2-2s-2 .896-2 2v40.333h-100.8v-40.333c0-1.104-.896-2-2-2s-2 .896-2 2v40.333h-19.665v-59.68c0-14.431 11.741-26.172 26.172-26.172h19.723c1.104 0 2-.896 2-2v-8.539c7.903 3.922 16.803 6.103 26.17 6.103 9.348 0 18.233-2.172 26.124-6.079-.003.001-.006.003-.009.004v8.51c0 1.104.896 2 2 2h19.777c14.432 0 26.173 11.741 26.173 26.172z" fill="#3762cc"/></g></svg>