<svg id="Layer_1" enable-background="new 0 0 512 512" height="512" viewBox="0 0 512 512" width="512" xmlns="http://www.w3.org/2000/svg"><g><g clip-rule="evenodd" fill-rule="evenodd"><g fill="#ffdcd5"><path d="m213.986 148.59c8.422.824 16.574 1.918 24.884 2.854v-95.598c0-12.609-10.315-22.923-22.923-22.923s-22.923 10.314-22.923 22.923v64.354c.979-.148 1.982-.225 3.003-.225 11.013 0 19.941 8.927 19.941 19.94-.001 3.11-.712 6.053-1.982 8.675z"/><path d="m238.87 55.846v95.598c9.572 1.078 19.354 1.946 30 1.946 5.481 0 10.733-.23 15.845-.601v-96.943-22.923c0-12.608-10.315-22.923-22.923-22.923s-22.923 10.315-22.923 22.922v22.924z"/><path d="m284.715 55.846v96.943c15.738-1.14 30.151-3.609 45.845-4.792v-46.304-45.847c0-12.608-10.315-22.922-22.923-22.922-12.607 0-22.922 10.314-22.922 22.922z"/><path d="m330.561 101.693v46.304c5.359-.404 10.868-.658 16.63-.658 13.529 0 22.837 3.182 29.216 8.497v-54.143c0-12.608-10.315-22.923-22.923-22.923-12.609 0-22.923 10.315-22.923 22.923z"/></g><path d="m330.56 147.997c-15.694 1.183-30.108 3.653-45.845 4.793-5.112.37-10.364.6-15.845.6-10.646 0-20.428-.867-30-1.946-8.31-.936-16.462-2.03-24.883-2.854-3.226 6.667-10.056 11.265-17.96 11.265-3.229 0-6.279-.769-8.977-2.131-4.786 5.887-12.084 9.65-20.263 9.65-4.493 0-8.72-1.135-12.412-3.135-9.14 16.074-5.997 40.838-5.997 61.759 0 1.191-.01 2.395-.028 3.61-.486 33.63-6.612 75.051 42.2 75.051 23.915 0 43.472-4.378 66.085-5.686 3.971-.23 8.036-.365 12.236-.365 19.626 0 36.316 2.948 54.168 4.728 3.669-9.178 12.642-15.662 23.13-15.662 3.414 0 6.667.688 9.629 1.931 5.254-8.368 14.562-13.931 25.171-13.931 2.308 0 4.555.263 6.712.762 3.629-15.119 1.683-33.968 1.683-50.438 0-25.048 4.509-55.607-12.957-70.163-6.378-5.316-15.687-8.497-29.216-8.497-5.763.001-11.271.255-16.631.659zm-116.147 53.799h108.914c6.656 0 12.101 5.445 12.101 12.101v24.203c0 6.656-5.445 12.101-12.101 12.101h-108.914c-6.656 0-12.101-5.445-12.101-12.101v-24.203c-.001-6.656 5.445-12.101 12.101-12.101z" fill="#8481e2"/><path d="m323.327 201.796h-108.914c-6.656 0-12.101 5.445-12.101 12.101v24.203c0 6.656 5.445 12.101 12.101 12.101h108.914c6.656 0 12.101-5.445 12.101-12.101v-24.203c0-6.656-5.445-12.101-12.101-12.101z" fill="#9d9ae8"/><path d="m380.968 275.675c-10.609 0-19.917 5.564-25.171 13.931-2.962-1.244-6.215-1.931-9.629-1.931-10.488 0-19.461 6.484-23.13 15.662-1.142 2.857-1.77 5.974-1.77 9.238 0 13.752 11.148 24.9 24.9 24.9 7.051 0 13.418-2.932 17.948-7.643 3.601 2.486 7.778 4.198 12.29 4.894 1.487.23 3.011.349 4.562.349 16.403 0 29.7-13.297 29.7-29.7 0-14.095-9.818-25.896-22.988-28.938-2.157-.499-4.404-.762-6.712-.762z" fill="#cff5fd"/><path d="m196.027 159.856c7.904 0 14.733-4.598 17.96-11.265 1.269-2.623 1.981-5.566 1.981-8.675 0-11.013-8.927-19.94-19.941-19.94-1.02 0-2.023.077-3.003.225-2.755.416-5.324 1.396-7.588 2.818-4.737-4.839-11.342-7.843-18.649-7.843-14.415 0-26.1 11.685-26.1 26.1 0 9.922 5.536 18.551 13.688 22.965 3.692 1.999 7.919 3.135 12.412 3.135 8.179 0 15.477-3.763 20.263-9.65 2.698 1.361 5.747 2.13 8.977 2.13z" fill="#cff5fd"/><path d="m190.55 304.659c-48.813 0-42.687-41.42-42.201-75.051-.505-5.051-.906-9.91-1.171-13.99-.816-12.581-10.316-22.923-22.922-22.923s-22.923 10.315-22.923 22.923v75.129c0 12.607 5.013 20.887 14.183 28.452l43.557 41.238c5.244-8.829 14.876-14.746 25.891-14.746 16.619 0 30.093 13.473 30.093 30.093 0 13.827-9.326 25.476-22.031 28.999v97.217h183.381v-167.274c-4.512-.696-8.689-2.408-12.29-4.894-4.53 4.711-10.897 7.643-17.948 7.643-13.752 0-24.9-11.148-24.9-24.9 0-3.264.628-6.382 1.77-9.238-17.852-1.78-34.542-4.728-54.168-4.728-4.199 0-8.265.135-12.236.365-22.614 1.307-42.17 5.685-66.085 5.685z" fill="#ffdcd5"/><path d="m215.055 375.783c0-16.62-13.473-30.093-30.093-30.093-11.014 0-20.646 5.917-25.891 14.746-2.669 4.493-4.202 9.741-4.202 15.346 0 16.62 13.473 30.093 30.093 30.093 2.792 0 5.496-.38 8.062-1.092 12.705-3.524 22.031-15.173 22.031-29z" fill="#cff5fd"/></g><g><path d="m214.413 260.202h108.915c12.187 0 22.101-9.915 22.101-22.102v-24.203c0-12.187-9.914-22.102-22.101-22.102h-9.461c-5.522 0-10 4.477-10 10s4.478 10 10 10h9.461c1.139 0 2.101.962 2.101 2.102v24.203c0 1.139-.962 2.102-2.101 2.102h-108.915c-1.139 0-2.102-.962-2.102-2.102v-24.203c0-1.139.962-2.102 2.102-2.102h9.454c5.523 0 10-4.477 10-10s-4.477-10-10-10h-9.454c-12.187 0-22.102 9.915-22.102 22.102v24.203c0 12.188 9.915 22.102 22.102 22.102z"/><path d="m420.668 305.375c0-15.415-8.837-28.796-21.706-35.37 1.263-10.13.957-20.857.653-31.304-.13-4.442-.252-8.638-.252-12.702 0-4.066.123-8.265.252-12.71.631-21.624 1.334-46.089-13.209-61.711v-49.885c0-18.153-14.77-32.922-32.923-32.922-4.584 0-8.953.942-12.922 2.642v-15.567c0-18.153-14.77-32.922-32.923-32.922-4.876 0-9.509 1.066-13.677 2.977-3.225-14.793-16.424-25.901-32.169-25.901s-28.944 11.108-32.169 25.9c-4.167-1.911-8.8-2.977-13.676-2.977-18.154 0-32.923 14.769-32.923 32.922v53.186c-4.972-2.511-10.493-3.857-16.238-3.857-19.906 0-36.1 16.194-36.1 36.1 0 10.322 4.362 19.64 11.331 26.225-2.015 5.79-3.117 12-3.665 18.432-4.264-2.08-9.037-3.237-14.097-3.237-18.154 0-32.923 14.769-32.923 32.923v75.129c0 14.534 5.577 25.963 17.545 35.938l38.158 36.126c-1.396 4.072-2.165 8.432-2.165 12.971 0 21.457 16.944 39.029 38.154 40.044v86.175c0 5.523 4.477 10 10 10h183.381c5.522 0 10-4.477 10-10v-157.307c19.326-2.66 34.263-19.273 34.263-39.318zm-67.185-216.604c7.126 0 12.923 5.797 12.923 12.922v38.085c-5.705-1.616-12.114-2.439-19.216-2.439-2.25 0-4.451.048-6.63.116v-35.743c0-.007.001-.013.001-.019 0-7.126 5.797-12.922 12.922-12.922zm-45.845-45.847c7.126 0 12.923 5.797 12.923 12.922v45.827c0 .007-.001.013-.001.019v37.172c-4.664.482-9.225 1.028-13.727 1.571-4.087.493-8.101.971-12.118 1.4v-85.989c0-7.125 5.797-12.922 12.923-12.922zm-58.769-10.002c0-7.125 5.797-12.922 12.923-12.922s12.923 5.797 12.923 12.922v22.924 87.447c-1.922.058-3.863.097-5.846.097-6.98 0-13.541-.39-20-.974v-86.57zm-32.922 10.002c7.125 0 12.922 5.797 12.922 12.922v84.346c-.963-.116-1.93-.23-2.904-.346-.032-14.069-9.819-25.882-22.941-29.037v-54.963c0-7.125 5.798-12.922 12.923-12.922zm-49.161 82.251c4.364 0 8.449 1.718 11.503 4.838 3.292 3.363 8.482 3.976 12.465 1.473 1.574-.989 3.397-1.511 5.271-1.511 5.481 0 9.94 4.459 9.94 9.94s-4.459 9.94-9.94 9.94c-1.576 0-3.08-.356-4.469-1.058-4.196-2.119-9.303-1.029-12.268 2.619-3.078 3.787-7.635 5.958-12.503 5.958-8.877 0-16.1-7.222-16.1-16.1s7.224-16.099 16.101-16.099zm0 52.2c8.468 0 16.513-2.926 22.914-8.197 2.076.448 4.2.678 6.327.678 9.182 0 17.408-4.158 22.904-10.687 3.225.36 6.438.744 9.581 1.123 12.634 1.523 25.699 3.098 40.357 3.098s27.723-1.575 40.357-3.098c12.603-1.519 24.507-2.954 37.963-2.954 11.413 0 19.361 2.472 24.301 7.557 9.25 9.524 8.683 28.987 8.133 47.809-.128 4.393-.261 8.936-.261 13.294 0 4.355.132 8.894.26 13.284.262 8.995.53 18.219-.301 26.434-10.504.427-20.219 4.915-27.278 12.449-1.928-.327-3.89-.492-5.875-.492-11.855 0-22.343 5.947-28.653 15.009-2.791-.318-5.569-.651-8.291-.979-12.634-1.522-25.697-3.097-40.354-3.097-14.658 0-27.722 1.575-40.356 3.097-12.603 1.519-24.507 2.954-37.964 2.954-11.413 0-19.361-2.472-24.3-7.557-9.251-9.524-8.683-28.988-8.133-47.81.093-3.174.186-6.425.232-9.629 0-.013.001-.026.001-.04.017-1.217.029-2.429.029-3.625 0-4.355-.132-8.895-.26-13.286-.372-12.774-.744-25.884 1.968-35.972 2.171.413 4.409.637 6.699.637zm-1.916 198.408c0-11.079 9.014-20.093 20.093-20.093s20.093 9.014 20.093 20.093-9.014 20.093-20.093 20.093-20.093-9.014-20.093-20.093zm38.154 116.217v-80.44c13.056-6.618 22.031-20.165 22.031-35.777 0-22.107-17.985-40.093-40.093-40.093-10.245 0-19.601 3.868-26.696 10.214l-35.877-33.966c-.165-.157-.335-.307-.511-.452-7.688-6.343-10.546-11.963-10.546-20.738v-75.129c0-7.125 5.797-12.923 12.923-12.923 6.877 0 12.441 5.834 12.943 13.571.271 4.173.666 8.912 1.141 13.739-.046 2.814-.127 5.699-.215 8.703-.639 21.907-1.364 46.737 13.778 62.328 8.779 9.039 21.782 13.623 38.647 13.623 14.658 0 27.723-1.575 40.357-3.097 7.724-.931 15.188-1.827 22.905-2.383 14.237 10.207 20.904 21.797 20.904 36.271 0 5.523 4.478 10 10 10s10-4.477 10-10c0-13.526-4.122-25.687-12.281-36.369 8.249.544 16.178 1.491 24.397 2.481 1.467.177 2.954.355 4.449.532-.002.161-.012.32-.012.481 0 19.244 15.656 34.9 34.9 34.9 6.891 0 13.447-1.968 19.057-5.644.39.169.786.32 1.181.476v149.692zm177.944-166.925c-4.018 0-7.881-1.201-11.171-3.473-4.035-2.785-9.492-2.235-12.89 1.298-2.837 2.95-6.65 4.574-10.739 4.574-8.216 0-14.9-6.684-14.9-14.9s6.685-14.9 14.9-14.9c2 0 3.938.388 5.758 1.152 4.511 1.896 9.736.244 12.34-3.903 3.637-5.791 9.88-9.249 16.702-9.249 10.862 0 19.7 8.837 19.7 19.7 0 10.864-8.838 19.701-19.7 19.701z"/><path d="m268.869 211.796c5.522 0 10-4.477 10-10s-4.478-10-10-10h-.007c-5.522 0-9.996 4.477-9.996 10s4.481 10 10.003 10z"/></g></g></svg>