<svg id="Layer_1" enable-background="new 0 0 512.002 512.002" height="512" viewBox="0 0 512.002 512.002" width="512" xmlns="http://www.w3.org/2000/svg"><g><g clip-rule="evenodd" fill-rule="evenodd"><path d="m235.373 303.976c4.125-15.394.922-29.458-7.934-38.315 14.61-5.704 24.961-19.915 24.961-36.545 0-11.663-5.091-22.137-13.172-29.321-6.926-6.157-16.05-9.898-26.047-9.898-7.222 0-13.988 1.952-19.799 5.357-11.618 6.808-19.421 19.424-19.421 33.862 0 3.692.511 7.265 1.465 10.652-.683-.045-1.371-.071-2.065-.071-16.9 0-30.6 13.7-30.6 30.6 0 1.786.155 3.535.448 5.237-4.968 1.31-9.563 3.54-13.591 6.496-10.04 7.37-16.557 19.257-16.557 32.666 0 22.368 18.132 40.5 40.5 40.5 3.309 0 6.525-.399 9.603-1.147-.001.083-.003.165-.003.247 0 16.9 13.7 30.6 30.6 30.6 14.36 0 26.408-9.893 29.705-23.234 4.219 2.193 9.011 3.434 14.095 3.434 11.029 0 20.41-5.381 25.795-14.132l-13.69-14.845c-9.783-10.607-9.494-23.01-3.842-31.094-3.402-.975-6.925-1.297-10.451-1.049z" fill="#cff5fd"/><path d="m147.795 437.998c0-15.906-12.894-28.8-28.8-28.8-6.494 0-12.486 2.149-17.303 5.775-6.982 5.255-11.497 13.613-11.497 23.025s4.515 17.77 11.497 23.025c4.817 3.626 10.809 5.775 17.303 5.775 15.906 0 28.8-12.895 28.8-28.8z" fill="#cff5fd"/><path d="m285.074 191.18c5.032 8.397 14.22 14.017 24.722 14.017 15.906 0 28.8-12.894 28.8-28.8s-12.894-28.8-28.8-28.8c-10.501 0-19.69 5.62-24.722 14.017-2.59 4.321-4.078 9.378-4.078 14.783-.001 5.405 1.488 10.462 4.078 14.783z" fill="#cff5fd"/><circle cx="367.996" cy="111.598" fill="#cff5fd" r="22.8"/><g fill="#ffdcd5"><path d="m413.84 346.572c-33.087-26.49-95.946-87.225-128.767-102.325v64.297l-4.895-4.337c-13.763-12.195-27.736-8.649-34.354.82-5.651 8.084-5.94 20.487 3.843 31.094l13.69 14.845 21.716 23.548 56.059 60.788c19.411 21.048 53.382 20.241 73.635-.012l35.819 35.818 51.415-87.744z"/><path d="m285.074 308.544v-64.298-53.066c-2.59-4.322-4.078-9.378-4.078-14.783s1.489-10.461 4.078-14.779v-59.924c0-12.608-10.315-22.923-22.923-22.923s-22.922 10.315-22.923 22.923v98.101c8.081 7.184 13.172 17.658 13.172 29.321 0 16.63-10.351 30.841-24.961 36.545 8.856 8.856 12.059 22.921 7.934 38.315 3.525-.249 7.049.074 10.451 1.05 6.618-9.468 20.591-13.014 34.354-.82z"/><path d="m213.182 189.897c9.997 0 19.12 3.74 26.047 9.898v-98.101c0-.038 0-.076 0-.114v-45.733c0-12.608-10.315-22.922-22.923-22.922s-22.923 10.315-22.923 22.922v139.407c5.811-3.405 12.577-5.357 19.799-5.357z"/><path d="m101.692 270.907v2.103c8.89 2.704 18.453 5.617 27.927 9.021 4.028-2.957 8.623-5.187 13.591-6.496-.293-1.702-.448-3.452-.448-5.237 0-16.9 13.7-30.6 30.6-30.6.694 0 1.383.025 2.065.071-.954-3.387-1.465-6.96-1.465-10.652 0-14.439 7.802-27.054 19.421-33.862v-139.408-22.924c0-12.608-10.315-22.922-22.923-22.922s-22.923 10.315-22.923 22.922v22.924c0-12.609-10.315-22.923-22.923-22.923s-22.923 10.314-22.923 22.923v215.06z"/><path d="m101.692 273.01c-20.299-6.173-37.091-11.255-41.33-18.598-2.063-10.831-3.796-27.693-4.517-38.793-.816-12.581-10.315-22.923-22.922-22.923-12.606.001-22.923 10.316-22.923 22.923v75.129c0 12.607 5.013 20.887 14.183 28.452l77.51 73.382v22.39c4.817-3.626 10.809-5.775 17.303-5.775 15.906 0 28.8 12.894 28.8 28.8s-12.894 28.8-28.8 28.8c-6.494 0-12.486-2.149-17.303-5.776v40.979h183.381v-127.486l-21.716-23.548c-5.385 8.751-14.766 14.132-25.795 14.132-5.083 0-9.876-1.241-14.095-3.434-3.298 13.341-15.345 23.234-29.705 23.234-16.9 0-30.6-13.7-30.6-30.6 0-.083.003-.165.003-.247-3.078.749-6.294 1.147-9.603 1.147-22.368 0-40.5-18.132-40.5-40.5 0-13.41 6.518-25.296 16.558-32.665-9.476-3.405-19.039-6.319-27.929-9.023z"/></g></g><g><path d="m511.485 380.193c-.916-2.737-2.969-4.946-5.632-6.057l-86.852-36.246c-9.524-7.691-21.652-18.297-34.464-29.5-30.668-26.819-65.195-57.008-89.463-70.277v-25.824c4.543 1.87 9.512 2.909 14.722 2.909 21.395 0 38.8-17.405 38.8-38.8s-17.406-38.8-38.8-38.8c-5.209 0-10.179 1.039-14.722 2.909v-38.813c0-18.153-14.769-32.922-32.923-32.922-4.585 0-8.953.941-12.922 2.642v-15.567c0-18.153-14.769-32.922-32.923-32.922-4.876 0-9.509 1.066-13.677 2.977-3.225-14.792-16.424-25.9-32.168-25.9-15.745 0-28.944 11.108-32.169 25.9-4.167-1.911-8.8-2.977-13.677-2.977-18.154 0-32.923 14.769-32.923 32.922v203.593c-9.637-3.103-18.846-6.461-21.925-9.207-1.744-10.123-3.277-25.008-3.943-35.261-1.194-18.4-15.338-32.275-32.901-32.275-18.154 0-32.923 14.769-32.923 32.923v75.129c0 14.534 5.577 25.963 17.546 35.939l74.146 70.198v13.575c-7.095 7.035-11.497 16.78-11.497 27.537s4.402 20.503 11.497 27.537v36.466c0 5.523 4.477 10 10 10h183.381c5.523 0 10-4.477 10-10v-101.893l38.708 41.973c10.81 11.722 25.793 18.359 42.191 18.691 13.703.282 27.206-3.991 38.221-11.915l29.323 29.322c1.887 1.887 4.436 2.929 7.07 2.929.423 0 .849-.027 1.274-.082 3.072-.394 5.789-2.19 7.354-4.863l51.415-87.744c1.46-2.489 1.772-5.489.856-8.226zm-201.69-222.596c10.367 0 18.8 8.434 18.8 18.8s-8.434 18.8-18.8 18.8-18.8-8.434-18.8-18.8c.001-10.366 8.434-18.8 18.8-18.8zm-47.644-68.826c7.125 0 12.923 5.797 12.923 12.922v57.417c-2.604 5.209-4.078 11.078-4.078 17.287s1.474 12.077 4.078 17.287v95.462c-10.364-4.408-20.378-3.031-27.964 1.392-.073-7.78-1.776-15.126-5.044-21.524 12.639-9.09 20.335-23.733 20.335-39.898 0-12.914-5.007-24.676-13.172-33.465v-93.947c0-.003 0-.006 0-.01 0-7.126 5.796-12.923 12.922-12.923zm-92.783 257.435c-2.414-1.909-5.573-2.6-8.565-1.873-2.357.573-4.793.864-7.24.864-16.818 0-30.5-13.682-30.5-30.5 0-13.842 9.333-25.97 22.697-29.493 5.015-1.322 8.187-6.258 7.305-11.369-.201-1.165-.303-2.355-.303-3.538 0-11.358 9.241-20.6 20.6-20.6.443 0 .915.017 1.401.049 3.231.215 6.384-1.157 8.431-3.679 2.046-2.523 2.739-5.882 1.859-9.009-.724-2.571-1.091-5.243-1.091-7.942 0-16.111 13.108-29.219 29.219-29.219s29.219 13.107 29.219 29.219c0 12.131-7.3 22.819-18.598 27.23-3.145 1.228-5.458 3.96-6.151 7.264-.692 3.304.329 6.735 2.716 9.122 6.432 6.432 8.43 17.145 5.346 28.656-.837 3.123-.112 6.458 1.945 8.952 1.218 1.477 2.82 2.539 4.589 3.122-1.254 9.426 1.431 20.073 10.067 29.438l7.61 8.252c-3.413 2.57-7.642 3.946-12.363 3.946-3.348 0-6.538-.776-9.481-2.307-2.72-1.415-5.939-1.502-8.732-.24-2.793 1.263-4.854 3.737-5.589 6.713-2.275 9.205-10.499 15.634-19.997 15.634-11.359 0-20.6-9.241-20.6-20.572l.003-.216c.019-3.079-1.382-5.994-3.797-7.904zm46.938-303.281c7.125 0 12.923 5.797 12.923 12.922v45.837.01 80.904c-5.033-1.741-10.429-2.7-16.046-2.7-3.355 0-6.631.34-9.799.982v-125.033c-.001-7.125 5.796-12.922 12.922-12.922zm-104.614 12.922c0-7.125 5.797-12.922 12.923-12.922s12.923 5.797 12.923 12.922v89.039c0 5.523 4.477 10 10 10s10-4.477 10-10v-89.039-22.924c0-7.125 5.797-12.922 12.923-12.922s12.922 5.797 12.922 12.922v22.924 134.131c-11.792 9-19.42 23.192-19.42 39.138 0 .558.009 1.116.028 1.673-17.37 4.12-30.458 19.429-31.196 37.862-1.551.699-3.054 1.477-4.511 2.32-5.62-1.927-11.237-3.71-16.592-5.362zm-11.497 382.15c0-10.366 8.434-18.8 18.8-18.8s18.8 8.434 18.8 18.8c0 10.367-8.434 18.8-18.8 18.8-10.366.001-18.8-8.433-18.8-18.8zm174.879 54.004h-163.382v-15.902c2.367.453 4.806.699 7.303.699 21.395 0 38.8-17.406 38.8-38.8s-17.405-38.8-38.8-38.8c-2.497 0-4.936.246-7.303.699v-7.314c0-2.747-1.13-5.373-3.125-7.262l-77.51-73.382c-.165-.157-.335-.307-.511-.452-7.688-6.344-10.546-11.964-10.546-20.739v-75.128c0-7.125 5.797-12.923 12.923-12.923 6.877 0 12.441 5.834 12.943 13.571.735 11.318 2.51 28.667 4.672 40.016.209 1.101.603 2.159 1.163 3.129 6.196 10.731 23.236 15.914 46.822 23.087 4.315 1.312 8.703 2.65 13.123 4.051-5.452 8.12-8.584 17.845-8.584 28.147 0 27.846 22.654 50.5 50.5 50.5.361 0 .722-.004 1.083-.012 4.77 17.117 20.5 29.712 39.118 29.712 14.983 0 28.358-8.125 35.401-20.68 2.755.582 5.575.88 8.399.88 9.825 0 18.856-3.284 25.947-9.216l11.564 12.54zm173.429-37.118-26.665-26.665c-3.905-3.905-10.237-3.905-14.143 0-8.217 8.217-19.631 12.79-31.32 12.558-10.903-.22-20.809-4.572-27.893-12.253l-91.465-99.182c-7.137-7.738-5.958-15.78-1.844-19.977 4.583-4.675 11.452-3.805 18.373 2.328l55.394 49.081c4.134 3.663 10.454 3.28 14.117-.853 3.663-4.134 3.281-10.454-.853-14.117l-47.13-41.759v-42.561c21.965 14.454 51.613 40.375 76.297 61.961 13.474 11.783 26.201 22.912 36.22 30.934.729.584 1.537 1.063 2.398 1.422l77.598 32.384z"/><path d="m193.594 325.348c0 5.523 4.477 10 10 10s10-4.477 10-10c0-18.003-14.646-32.65-32.65-32.65-8.721 0-16.92 3.396-23.087 9.563-3.905 3.905-3.905 10.237 0 14.143s10.237 3.905 14.143 0c2.389-2.389 5.565-3.705 8.945-3.705 6.974-.001 12.649 5.673 12.649 12.649z"/><path d="m367.996 144.397c18.086 0 32.8-14.714 32.8-32.8 0-18.085-14.714-32.799-32.8-32.799s-32.8 14.714-32.8 32.799c0 18.086 14.714 32.8 32.8 32.8zm0-45.599c7.058 0 12.8 5.742 12.8 12.799 0 7.058-5.742 12.8-12.8 12.8s-12.8-5.742-12.8-12.8 5.742-12.799 12.8-12.799z"/><path d="m147.538 199.886c5.523 0 10-4.477 10-10s-4.477-10-10-10h-.007c-5.523 0-9.996 4.477-9.996 10s4.48 10 10.003 10z"/></g></g></svg>