<svg id="Layer_1" enable-background="new 0 0 512.002 512.002" height="512" viewBox="0 0 512.002 512.002" width="512" xmlns="http://www.w3.org/2000/svg"><g><g clip-rule="evenodd" fill-rule="evenodd"><path d="m262.002 50.001h129.999 40.001 20.001v-40h-190.002c-11.02 0-21.025 4.495-28.265 11.735s-11.735 17.245-11.735 28.265v20h40v-20z" fill="#fff"/><path d="m262.002 130.397c0-13.217-15.299-30.395-20-30.395s-20 17.178-20 30.395c0 10.944 9.038 20.313 20 20.271 10.962.042 20-9.327 20-20.271z" fill="#99ebfa"/><path d="m382.002 93.377c-11 0-20 9-20 20v20h99.999v-20c0-10.999-9-20-20-20h-9.999-40.001z" fill="#ffc144"/><path d="m392.001 50.001v43.375h40.001v-43.375c-13.333 0-26.667 0-40.001 0z" fill="#fff"/><path d="m462.001 133.376c-29.788 0-70.211 0-99.999 0-3.491 0-6.836 0-10 0 0 15.512-17.54 20.001-24.603 20.001-3.428 5.892-5.397 12.727-5.397 19.999v54.31h179.999c0-18.103 0-36.207 0-54.31 0-7.272-1.968-14.107-5.396-19.999-7.063 0-24.603-4.489-24.603-20.001-3.165 0-6.51 0-10.001 0z" fill="#fff"/><path d="m502.001 227.686h-179.999v180.006h179.999c0-60.002 0-120.004 0-180.006zm-109.999 40.003h40v30h30v40h-30v30h-40v-30h-30v-40h30z" fill="#ffc144"/><path d="m432.002 267.689h-40v30h-30v39.999h30v30.001h40v-30.001h30v-39.999h-30z" fill="#fff"/><path d="m502.001 407.692h-179.999v74.309c0 11 9 20 20 20h140c11 0 20-9 20-20-.001-24.77-.001-49.54-.001-74.309z" fill="#fff"/><path d="m421.503 208.947c9.528-4.732 9.157-12.639 7.75-16.267-6.956-17.937-27.59-18.736-47.52-13.395l-111.249 35.883c6.385-12.784-2.25-30.938-22.962-31.776l-134.807-5.456c-28.608-1.158-52.059 23.434-52.059 52.076h-50.656v108.961l114.044-46.884c42.127-4.665 129.521-6.167 163.407-18.697z" fill="#ffdcd5"/></g><g><path d="m241.852 160.668h.226c7.823 0 15.247-3.105 20.915-8.751 5.726-5.704 9.01-13.548 9.01-21.52 0-10.752-6.395-20.976-10.207-26.113-4.834-6.516-12.193-14.282-19.793-14.282-7.601 0-14.959 7.767-19.793 14.282-3.812 5.137-10.207 15.361-10.207 26.113 0 7.972 3.284 15.815 9.01 21.52 5.667 5.646 13.09 8.751 20.839 8.751zm.15-48.928c4.175 4.253 10 12.848 10 18.657 0 2.693-1.139 5.372-3.125 7.351-1.892 1.884-4.306 2.92-6.877 2.92-.012 0-.024 0-.036 0s-.023 0-.035 0c-2.497 0-4.911-1.036-6.803-2.92-1.986-1.979-3.125-4.658-3.125-7.351 0-5.81 5.825-14.404 10.001-18.657z"/><path d="m505.249 148.348c-1.79-3.078-5.083-4.972-8.644-4.972-.146 0-14.604-1.061-14.604-10 0-5.523-4.478-10-10-10v-10c0-16.542-13.458-29.999-29.999-30v-23.374-.001h10c5.522 0 10-4.477 10-10v-40c0-5.523-4.478-10-10-10h-190.001c-13.331 0-25.88 5.208-35.336 14.664s-14.664 22.005-14.664 35.336v20c0 5.523 4.477 10 10 10h40c5.522 0 10-4.477 10-10v-10h109.999v.001 23.374c-16.542 0-29.999 13.458-29.999 30v10c-5.522 0-10 4.477-10 10 0 8.94-14.456 10-14.603 10-3.561 0-6.853 1.893-8.644 4.97-4.418 7.594-6.754 16.249-6.754 25.029v17.894l-29.948 9.66c-2.491-13.547-14.32-26.727-34.127-27.528l-22.447-.908c-5.529-.24-10.173 4.069-10.396 9.587-.224 5.519 4.069 10.173 9.587 10.396l22.447.908c10.519.426 15.372 6.945 15.431 12.822.064 6.546-5.407 10.788-14.638 11.345l-73.874 4.464c-5.513.333-9.712 5.072-9.379 10.585s5.073 9.706 10.585 9.379l73.874-4.464c13.455-.813 22.603-6.519 27.882-13.941l107.56-34.693c11.118-2.949 30.244-5.807 35.364 7.396.437 1.29-.511 2.53-2.816 3.687l-133.547 64.206c-22.648 8.185-72.789 11.543-113.125 14.244-17.861 1.196-34.731 2.326-47.489 3.738-.928.103-1.838.335-2.702.69l-100.242 41.21v-84.038h40.655c5.523 0 10-4.477 10-10 0-11.621 4.835-22.929 13.267-31.026 7.865-7.554 17.958-11.476 28.388-11.059l22.44.909c5.517.227 10.173-4.068 10.396-9.587s-4.069-10.173-9.587-10.396l-22.44-.909c-15.935-.653-31.222 5.256-43.05 16.617-9.902 9.51-16.416 22.059-18.601 35.451h-41.468c-5.523 0-10 4.477-10 10v108.961c0 3.335 1.663 6.451 4.433 8.308 1.671 1.12 3.613 1.692 5.568 1.692 1.286 0 2.577-.248 3.801-.751l112.732-46.344c12.174-1.297 28.251-2.374 45.235-3.511 44.059-2.95 93.997-6.294 119.15-15.596.293-.109.582-.231.864-.367l20.219-9.72v209.315c0 16.542 13.458 30 30 30h140c16.542 0 30-13.458 30-30v-308.625c0-8.78-2.335-17.434-6.753-25.028zm-243.247-108.347c-5.523 0-10 4.477-10 10v10h-20v-10c0-7.989 3.127-15.516 8.806-21.194 5.678-5.679 13.205-8.806 21.193-8.806h180.002v20zm160.001 20s0 .001 0 0v23.375h-20.002v-23.374-.001zm-50.001 63.375v-10c0-5.514 4.486-10 10-10h60c5.514 0 10 4.486 10 10v10zm7.143 46.25c-.161.043-.322.091-.48.142l-46.662 15.051v-11.443c0-3.629.667-7.222 1.952-10.595 10.497-1.859 21.943-8.113 26.264-19.405h103.568c4.32 11.292 15.767 17.545 26.264 19.405 1.285 3.373 1.952 6.966 1.952 10.595v44.31h-.001-65.633c13.344-6.867 15.708-19.602 12.208-28.62-7.895-20.361-29.557-27.449-59.432-19.44zm5.661 68.059h107.195.001v160.006h-.001-159.999v-134.62zm97.196 254.316h-140c-5.514 0-10-4.486-10-10v-64.31h159.999.001v64.31c0 5.514-4.486 10-10 10z"/><path d="m362.002 347.688h20v20c0 5.523 4.478 10 10 10h40c5.522 0 10-4.477 10-10v-20h20c5.522 0 10-4.477 10-10v-40c0-5.523-4.478-10-10-10h-20v-20c0-5.523-4.478-10-10-10h-40c-5.522 0-10 4.477-10 10v20h-20c-5.522 0-10 4.477-10 10v40c0 5.523 4.477 10 10 10zm10-39.999h20c5.522 0 10-4.477 10-10v-20h20v20c0 5.523 4.478 10 10 10h20v20h-20c-5.522 0-10 4.477-10 10v20h-20v-20c0-5.523-4.478-10-10-10h-20z"/><path d="m180.119 190.665c5.523 0 10-4.477 10-10s-4.477-10-10-10h-.007c-5.523 0-9.996 4.477-9.996 10s4.48 10 10.003 10z"/></g></g></svg>